<?xml version="1.0" encoding="utf-8"?>
<!-- Generator: Adobe Illustrator 24.1.1, SVG Export Plug-In . SVG Version: 6.00 Build 0)  -->
<svg version="1.1" id="Layer_1" xmlns="http://www.w3.org/2000/svg" xmlns:xlink="http://www.w3.org/1999/xlink" x="0px" y="0px"
	 viewBox="0 0 1063.01 364.04" style="enable-background:new 0 0 1063.01 364.04;" xml:space="preserve">
<style type="text/css">
	.st0{fill:#007059;}
	.st1{fill:#00A777;}
	.st2{fill:#FFFFFF;}
	.st3{fill:#3463AF;}
	.st4{opacity:0.11;fill:#72CEE3;}
	.st5{fill:#00729C;}
</style>
<g>
	<g>
		<path class="st0" d="M205.99,42.81v243.47h-67.8l-17.58-18.62L82.19,227l-15.67-16.59V33.84c0-7.36,5.51-13.32,12.31-13.32h114.82
			c6.59,0,11.99,5.59,12.31,12.63h-53.8c-4.29,0-8.05,2.38-10.22,5.99c-1.3,2.09-2.04,4.61-2.04,7.31v221.21h10.38V50.49
			c0-4.24,3.2-7.68,7.12-7.68H205.99z"/>
		<path class="st1" d="M141.95,39.14c-1.3,2.09-2.04,4.61-2.04,7.31v221.21h-19.3L82.19,227V56.1c8.66,0,15.67-7.59,15.67-16.96
			H141.95z"/>
		<path class="st1" d="M190.31,56.1v211.55h-40.03V50.49c0-4.24,3.2-7.68,7.12-7.68h17.61C176.57,50.43,182.82,56.1,190.31,56.1z"/>
		<path class="st2" d="M136.25,105.18c1.22,0,2.44,0.06,3.65,0.17v81.68c-1.22,0.11-2.44,0.17-3.65,0.17
			c-20.94,0-37.91-18.36-37.91-41.03C98.34,123.55,115.31,105.18,136.25,105.18z"/>
		<path class="st2" d="M174.16,146.18c0,3.52-0.42,6.96-1.19,10.26c-1.35,5.62-3.76,10.77-6.99,15.18c-4.08,5.59-9.48,10-15.7,12.69
			v-76.24c6.22,2.69,11.62,7.11,15.7,12.69C171.12,127.76,174.16,136.58,174.16,146.18z"/>
		<path class="st0" d="M373.54,33.84v156.63l-15.67,13.24l-57.71,48.73v-206c0-2.69-0.74-5.21-2.04-7.31
			c-2.17-3.61-5.96-5.99-10.25-5.99H234.1c0.32-7.05,5.69-12.63,12.28-12.63h114.84C368.03,20.52,373.54,26.48,373.54,33.84z"/>
		<path class="st0" d="M289.75,50.49v210.75l-7.57,6.39l-8.07,6.82l-14.03,11.83h-26V42.81h48.58
			C286.57,42.81,289.75,46.25,289.75,50.49z"/>
		<path class="st1" d="M289.75,50.49v210.75l-7.57,6.39h-32.43V56.1c7.52,0,13.77-5.67,15.33-13.29h17.58
			C286.57,42.81,289.75,46.25,289.75,50.49z"/>
		<path class="st1" d="M357.87,56.1v147.61l-57.71,48.73v-206c0-2.69-0.74-5.21-2.04-7.31h44.08
			C342.2,48.51,349.21,56.1,357.87,56.1z"/>
		<path class="st2" d="M289.75,108.85v74.69c-6.35-3.09-11.75-8.05-15.65-14.21c-2.44-3.87-4.29-8.22-5.4-12.89
			c-0.77-3.29-1.19-6.73-1.19-10.26c0-8.57,2.44-16.53,6.59-23.12C278,116.9,283.4,111.94,289.75,108.85z"/>
		<path class="st2" d="M343.31,146.18c0,22.66-16.97,41.03-37.91,41.03c-1.77,0-3.52-0.14-5.24-0.37v-81.25
			c1.72-0.26,3.47-0.4,5.24-0.4C326.34,105.18,343.31,123.55,343.31,146.18z"/>
		<path class="st2" d="M289.75,50.49v210.75l-7.57,6.39l-8.07,6.82l-14.03,11.83l-4.34,3.67l-22.05,18.62l-11.41,9.63h-53.93
			l-9.08-9.63l-8.97-9.48l-10.38-11v-20.43h10.38V50.49c0-4.24,3.2-7.68,7.12-7.68h125.25C286.57,42.81,289.75,46.25,289.75,50.49z"
			/>
		<path class="st0" d="M289.75,50.49v210.75l-7.57,6.39l-8.07,6.82l-14.03,11.83l-4.34,3.67l-22.05,18.62h-74.42l-8.97-9.48V50.49
			c0-4.24,3.2-7.68,7.12-7.68h125.25C286.57,42.81,289.75,46.25,289.75,50.49z"/>
		<path class="st1" d="M274.1,78.39v196.05l-14.03,11.83l-4.34,3.67h-89.75V78.39c8.66,0,15.67-7.59,15.67-16.96h76.75
			C258.41,70.8,265.42,78.39,274.1,78.39z"/>
		<ellipse class="st2" cx="218.7" cy="168.34" rx="40.5" ry="43.83"/>
		<polygon class="st3" points="514.97,71.09 373.54,190.47 357.87,203.71 300.16,252.45 289.75,261.24 282.18,267.63 274.1,274.45 
			260.07,286.28 255.73,289.95 233.68,308.57 222.27,318.2 192.27,343.52 168.34,318.2 159.26,308.57 150.29,299.09 139.91,288.09 
			138.19,286.28 120.61,267.66 82.19,227 66.52,210.42 42.4,184.89 66.52,200.59 82.19,210.79 139.91,248.35 150.29,255.11 
			165.98,265.31 169.58,267.66 186.34,278.57 205.99,266.17 234.08,248.43 249.75,238.55 274.1,223.16 289.75,213.28 300.16,206.72 
			357.87,170.28 373.54,160.39 		"/>
		<polygon class="st4" points="514.97,71.08 190.31,303.64 42.41,184.89 186.35,278.56 		"/>
	</g>
	<g>
		<g>
			<path class="st5" d="M457.27,252.45l57.59-139.83h29.53l57.77,139.83h-31.38l-47.25-123.45h11.81l-47.44,123.45H457.27z
				 M486.06,222.48l7.94-24.57h66.45l8.12,24.57H486.06z"/>
			<path class="st5" d="M667.87,252.45V112.61h24.73l55.01,98.68h-13.11l54.08-98.68h24.55l0.37,139.83h-28.06l-0.18-93.29h5.17
				l-43.19,78.51h-13.47l-44.12-78.51h6.28v93.29H667.87z"/>
			<path class="st5" d="M935.15,252.45L879.4,112.61h32.3l48.73,123.85h-19.01l49.47-123.85h29.72l-55.93,139.83H935.15z"/>
		</g>
	</g>
</g>
<g>
</g>
<g>
</g>
<g>
</g>
<g>
</g>
<g>
</g>
<g>
</g>
</svg>
