<?xml version="1.0" encoding="utf-8"?>
<!-- Generator: Adobe Illustrator 24.1.1, SVG Export Plug-In . SVG Version: 6.00 Build 0)  -->
<svg version="1.1" id="Layer_1" xmlns="http://www.w3.org/2000/svg" xmlns:xlink="http://www.w3.org/1999/xlink" x="0px" y="0px"
	 viewBox="0 0 1075.15 741.55" style="enable-background:new 0 0 1075.15 741.55;" xml:space="preserve">
<style type="text/css">
	.st0{fill:#007059;}
	.st1{fill:#00A777;}
	.st2{fill:#FFFFFF;}
	.st3{fill:#3463AF;}
	.st4{opacity:0.11;fill:#72CEE3;}
</style>
<g>
	<path class="st0" d="M380.75,70.49v525.18H234.51l-37.92-40.17l-82.86-87.69l-33.81-35.78V51.14c0-15.88,11.88-28.74,26.55-28.74
		h247.67c14.22,0,25.87,12.05,26.55,27.25H264.66c-9.25,0-17.36,5.13-22.04,12.92c-2.8,4.51-4.4,9.95-4.4,15.76v477.16h22.39V87.05
		c0-9.15,6.91-16.56,15.36-16.56H380.75z"/>
	<path class="st1" d="M242.61,62.58c-2.8,4.51-4.4,9.95-4.4,15.76v477.16h-41.63l-82.86-87.69V99.16
		c18.67,0,33.81-16.38,33.81-36.59H242.61z"/>
	<path class="st1" d="M346.95,99.16v456.33H260.6V87.05c0-9.15,6.91-16.56,15.36-16.56h37.98
		C317.31,86.93,330.79,99.16,346.95,99.16z"/>
	<path class="st2" d="M230.34,205.03c2.63,0,5.25,0.12,7.88,0.37v176.19c-2.63,0.25-5.25,0.37-7.88,0.37
		c-45.17,0-81.78-39.61-81.78-88.5C148.56,244.64,185.17,205.03,230.34,205.03z"/>
	<path class="st2" d="M312.11,293.46c0,7.6-0.91,15.02-2.57,22.12c-2.91,12.11-8.11,23.24-15.08,32.75
		c-8.79,12.05-20.44,21.57-33.86,27.38V211.27c13.42,5.81,25.07,15.33,33.86,27.38C305.55,253.72,312.11,272.76,312.11,293.46z"/>
	<path class="st0" d="M742.18,51.14V389l-33.81,28.55L583.88,522.68V78.34c0-5.81-1.6-11.25-4.4-15.76
		c-4.68-7.79-12.85-12.92-22.1-12.92H441.4c0.69-15.2,12.28-27.25,26.5-27.25h247.73C730.3,22.41,742.18,35.26,742.18,51.14z"/>
	<path class="st0" d="M561.44,87.05v454.6l-16.33,13.78l-17.42,14.71l-30.27,25.52h-56.08V70.49h104.79
		C554.58,70.49,561.44,77.9,561.44,87.05z"/>
	<path class="st1" d="M561.44,87.05v454.6l-16.33,13.78h-69.95V99.16c16.22,0,29.7-12.24,33.06-28.68h37.92
		C554.58,70.49,561.44,77.9,561.44,87.05z"/>
	<path class="st1" d="M708.37,99.16v318.39L583.88,522.68V78.34c0-5.81-1.6-11.25-4.4-15.76h95.08
		C674.56,82.78,689.7,99.16,708.37,99.16z"/>
	<path class="st2" d="M561.44,212.94v161.11c-13.71-6.67-25.35-17.37-33.75-30.65c-5.25-8.34-9.25-17.74-11.65-27.81
		c-1.66-7.11-2.57-14.52-2.57-22.12c0-18.48,5.25-35.66,14.22-49.87C536.08,230.3,547.73,219.61,561.44,212.94z"/>
	<path class="st2" d="M676.96,293.46c0,48.88-36.6,88.5-81.78,88.5c-3.83,0-7.6-0.31-11.31-0.8V205.89
		c3.71-0.56,7.48-0.87,11.31-0.87C640.36,205.03,676.96,244.64,676.96,293.46z"/>
	<path class="st2" d="M561.44,87.05v454.6l-16.33,13.78l-17.42,14.71l-30.27,25.52l-9.37,7.91l-47.57,40.17l-24.61,20.76H299.55
		l-19.59-20.76l-19.36-20.46l-22.39-23.73v-44.06h22.39V87.05c0-9.15,6.91-16.56,15.36-16.56h270.17
		C554.58,70.49,561.44,77.9,561.44,87.05z"/>
	<path class="st0" d="M561.44,87.05v454.6l-16.33,13.78l-17.42,14.71l-30.27,25.52l-9.37,7.91l-47.57,40.17H279.96l-19.36-20.46
		V87.05c0-9.15,6.91-16.56,15.36-16.56h270.17C554.58,70.49,561.44,77.9,561.44,87.05z"/>
	<path class="st1" d="M527.69,147.24v422.9l-30.27,25.52l-9.37,7.91H294.47V147.24c18.67,0,33.81-16.38,33.81-36.59h165.55
		C493.82,130.87,508.96,147.24,527.69,147.24z"/>
	<ellipse class="st2" cx="408.18" cy="341.25" rx="87.35" ry="94.54"/>
	<polygon class="st3" points="1047.24,131.48 742.18,389 708.37,417.56 583.88,522.68 561.44,541.65 545.11,555.43 527.69,570.14 
		497.43,595.66 488.06,603.57 440.49,643.74 415.88,664.51 351.18,719.14 299.55,664.51 279.97,643.74 260.61,623.29 238.22,599.56 
		234.51,595.66 196.59,555.49 113.73,467.8 79.92,432.02 27.9,376.95 79.92,410.82 113.73,432.82 238.22,513.84 260.61,528.43 
		294.47,550.43 302.24,555.49 338.39,579.04 380.76,552.28 441.35,514.03 475.15,492.71 527.69,459.52 561.44,438.2 583.88,424.05 
		708.37,345.44 742.18,324.11 	"/>
	<polygon class="st4" points="1047.24,131.46 346.95,633.11 27.9,376.96 338.39,579.01 	"/>
</g>
<g>
</g>
<g>
</g>
<g>
</g>
<g>
</g>
<g>
</g>
<g>
</g>
</svg>
